# xmcd
# 
# Track frame offsets:
#     150
#     29387
#     50780
#     73657
#     88560
#     109715
#     128850
#     150360
#     173075
#     194612
#     208210
#     231125
# 
# Disc length: 3417
# 
# Revision: 1
# Processed by: cddbd v1.5.2PL0 Copyright (c) Steve Scherf et al.
# Submitted via: BonkEnc v1.0.8
# 
DISCID=a60d570c
DTITLE=Richie Beirach - Ballads
DYEAR=1986
DGENRE=Contemporary Jazz
TTITLE0=Elm
TTITLE1=My Foolish Heart
TTITLE2=Infant Eyes
TTITLE3=Blood Count
TTITLE4=Nightlake
TTITLE5=On Green Dorlphine Street
TTITLE6=Naima
TTITLE7=Small World
TTITLE8=Leaving
TTITLE9=Over the Rainbow
TTITLE10=You Don't Know What Love is
TTITLE11=Sunday Song
EXTD=
EXTT0=
EXTT1=
EXTT2=
EXTT3=
EXTT4=
EXTT5=
EXTT6=
EXTT7=
EXTT8=
EXTT9=
EXTT10=
EXTT11=
PLAYORDER=
